# AST/ASF file generated using VICON BodyLanguage
# -----------------------------------------------
:version 1.10
:name VICON
:units
  mass 1.0
  length 0.45
  angle deg
:documentation
   .ast/.asf automatically generated from VICON data using
   VICON BodyBuilder and BodyLanguage model FoxedUp or BRILLIANT.MOD
:root
   order TX TY TZ RX RY RZ
   axis XYZ
   position 0 0 0  
   orientation 0 0 0 
:bonedata
  begin
     id 1 
     name lhipjoint
     direction 0.560651 -0.75055 0.34978 
     length 2.44936 
     axis 0 0 0  XYZ
  end
  begin
     id 2 
     name lfemur
     direction 0.34202 -0.939693 0  
     length 7.42139  
     axis 0 0 20  XYZ
    dof rx ry rz
    limits (-160.0 20.0)
           (-70.0 70.0)
           (-60.0 70.0)
  end
  begin
     id 3 
     name ltibia
     direction 0.34202 -0.939693 0   
     length 7.75674   
     axis 0 0 20   XYZ
    dof rx
    limits (-10.0 170.0)
  end
  begin
     id 4 
     name lfoot
     direction 0.0925879 -0.254383 0.962661   
     length 2.38688   
     axis -90 7.62852e-016 20   XYZ
    dof rx rz
    limits (-45.0 90.0)
           (-70.0 20.0)
  end
  begin
     id 5 
     name ltoes
     direction 1.53567e-011 -4.21973e-011 1   
     length 1.19228   
     axis -90 7.62852e-016 20   XYZ
    dof rx
    limits (-90.0 20.0)
  end
  begin
     id 6 
     name rhipjoint
     direction -0.540087 -0.762838 0.355506   
     length 2.4099  
     axis 0 0 0  XYZ 
  end
  begin
     id 7 
     name rfemur
     direction -0.34202 -0.939693 0   
     length 7.70794   
     axis 0 0 -20   XYZ
    dof rx ry rz
    limits (-160.0 20.0)
           (-70.0 70.0)
           (-70.0 60.0)
  end
  begin
     id 8 
     name rtibia
     direction -0.34202 -0.939693 0   
     length 7.66106   
     axis 0 0 -20   XYZ
    dof rx
    limits (-10.0 170.0)
 end
 begin
     id 9 
     name rfoot
     direction -0.0830975 -0.228308 0.970036   
     length 2.4989  
     axis -90 -7.62852e-016 -20   XYZ
    dof rx rz
    limits (-45.0 90.0)
           (-20.0 70.0)
  end
  begin
     id 10 
     name rtoes
     direction -1.53517e-011 -4.21842e-011 1   
     length 1.2498   
     axis -90 -7.62852e-016 -20   XYZ
    dof rx
    limits (-90.0 20.0)
  end
  begin
     id 11 
     name lowerback
     direction 0.0266356 0.99402 -0.105896   
     length 2.1545   
     axis 0 0 0   XYZ
    dof rx ry rz
    limits (-20.0 45.0)
           (-30.0 30.0)
           (-30.0 30.0)
  end
  begin
     id 12 
     name upperback
     direction 0.0130547 0.999192 0.0380027   
     length 2.1434   
     axis 0 0 0   XYZ
    dof rx ry rz
    limits (-20.0 45.0)
           (-30.0 30.0)
           (-30.0 30.0)
  end
  begin
     id 13 
     name thorax
     direction 0.000590299 0.996288 0.0860764   
     length 2.19049   
     axis 0 0 0   XYZ
    dof rx ry rz
    limits (-20.0 45.0)
           (-30.0 30.0)
           (-30.0 30.0)
  end
  begin
     id 14 
     name lowerneck
     direction -0.0432125 0.978219 0.203028   
     length 1.62441   
     axis 0 0 0   XYZ
    dof rx ry rz
    limits (-20.0 45.0)
           (-30.0 30.0)
           (-30.0 30.0)
  end
  begin
     id 15 
     name upperneck
     direction -0.0192309 0.991699 -0.127138   
     length 1.66666   
     axis 0 0 0   XYZ
    dof rx ry rz
    limits (-20.0 45.0)
           (-30.0 30.0)
           (-30.0 30.0)
  end
  begin
     id 16
     name head
     direction -0.00434499 0.997882 -0.0649107  
     length 1.67142  
     axis 0 0 0   XYZ
    dof rx ry rz
    limits (-20.0 45.0)
           (-30.0 30.0)
           (-30.0 30.0)
  end
  begin
     id 17 
     name lclavicle
     direction 0.970351 0.240904 -0.0196058  
     length 4.04862  
     axis 0 0 0   XYZ
    dof ry rz
    limits (-20.0 10.0)
           (0.0 20.0)
  end
  begin
     id 18 
     name lhumerus
     direction 1 -4.4896e-011 -1.40911e-018   
     length 5.58345   
     axis 180 -30 -90   XYZ
    dof rx ry rz
    limits (-60.0 90.0)
           (-90.0 90.0)
           (-90.0 90.0)
  end
  begin
     id 19
     name lradius
     direction 1 -4.48968e-011 5.88912e-028   
     length 3.71087   
     axis 180 -30 -90   XYZ
    dof rx
    limits (-10.0 170.0)
  end
  begin
     id 20
     name lwrist
     direction 1 -4.48955e-011 -8.83775e-028   
     length 1.85544   
     axis 5.52448e-016 90 90   XYZ
    dof ry
    limits (-180.0 0.0)
 end
  begin
     id 21 
     name lhand
     direction 1 -4.49035e-011 -1.76755e-027   
     length 0.562322   
     axis 1.12785e-015 90 90   XYZ
    dof rx rz
    limits (-90.0 90.0)
           (-45.0 45.0)
  end
  begin
     id 22 
     name lfingers
     direction 1 -4.48824e-011 -3.5351e-027   
     length 0.453359   
     axis 2.2557e-015 90 90   XYZ
    dof rx
    limits (0.0 90.0)
  end
  begin
     id 23
     name lthumb
     direction 0.707107 -6.34888e-011 0.707107   
     length 0.650935   
     axis -90 45 2.85299e-015   XYZ
    dof rx rz
    limits (-45.0 45.0)
           (-45.0 45.0)
  end
  begin
     id 24 
     name rclavicle
     direction -0.96165 0.268562 -0.0557131   
     length 4.05446  
     axis 0 0 0   XYZ 
    dof ry rz
    limits (-10.0 20.0)
           (-20.0 0.0)
  end
  begin
     id 25 
     name rhumerus
     direction -1 -4.48957e-011 -3.36329e-027  
     length 5.20357   
     axis 180 30 90   XYZ
    dof rx ry rz
    limits (-90.0 60.0)
           (-90.0 90.0)
           (-90.0 90.0)
  end
  begin
     id 26 
     name rradius
     direction -1 -4.48974e-011 4.51441e-027   
     length 3.64937   
     axis 180 30 90   XYZ
    dof rx
    limits (-10.0 170.0)
  end
  begin
     id 27 
     name rwrist
     direction -1 -4.4896e-011 -8.83775e-028   
     length 1.82468   
     axis 5.52448e-016 -90 -90   XYZ
    dof ry
    limits (-180.0 0.0)
  end
  begin
     id 28
     name rhand
     direction -1 -4.48996e-011 -1.76755e-027   
     length 0.617996   
     axis 1.12785e-015 -90 -90   XYZ
    dof rx rz
    limits (-90.0 90.0)
           (-45.0 45.0)
  end
  begin
     id 29
     name rfingers
     direction -1 -4.48957e-011 -3.5351e-027   
     length 0.498244   
     axis 2.2557e-015 -90 -90   XYZ
    dof rx
    limits (0.0 90.0)
  end
  begin
     id 30
     name rthumb
     direction -0.707107 -6.34931e-011 0.707107   
     length 0.715382   
     axis -90 -45 -2.85299e-015   XYZ
    dof rx rz
    limits (-45.0 45.0)
           (-45.0 45.0)
  end
:hierarchy
  begin
    root lhipjoint rhipjoint lowerback
    lhipjoint lfemur
    lfemur ltibia
    ltibia lfoot
    lfoot ltoes
    rhipjoint rfemur
    rfemur rtibia
    rtibia rfoot
    rfoot rtoes
    lowerback upperback
    upperback thorax
    thorax lowerneck lclavicle rclavicle
    lowerneck upperneck
    upperneck head
    lclavicle lhumerus
    lhumerus lradius
    lradius lwrist
    lwrist lhand lthumb
    lhand lfingers
    rclavicle rhumerus
    rhumerus rradius
    rradius rwrist
    rwrist rhand rthumb
    rhand rfingers
  end

#!OML:ASF H:\ManfredETheater\Project 1\Capture day 2\Session 1\Male1.ASF
:FULLY-SPECIFIED
:DEGREES
32
root 5.24568 17.4644 -10.5791 5.04569 -5.66256 5.92834
lowerback 16.7928 -1.4028 2.62318
upperback 2.12913 -1.14253 3.002
thorax -7.12423 -0.587148 1.98152
lowerneck -23.3117 2.39663 -0.294899
upperneck 15.583 5.2269 -8.7357
head 8.98132 1.43725 -2.21229
rclavicle 3.97569e-015 -3.81667e-014
rhumerus -56.5477 2.03283 -71.2903
rradius 73.5909
rwrist -3.65244
rhand -33.8276 2.60503
rfingers 7.12502
rthumb -7.01318 -27.2588
lclavicle 3.97569e-015 -3.81667e-014
lhumerus -43.2009 -15.6117 97.3896
lradius 101.857
lwrist 5.77329
lhand -19.1541 -12.9493
lfingers 7.12502
lthumb 7.15643 16.9097
rfemur -50.1695 -7.28482 18.7946
rtibia 41.3925
rfoot -1.45938 -2.0259
rtoes -28.0698
lfemur -9.83788 5.6804 -29.7626
ltibia 59.6919
lfoot 14.0897 -23.631
ltoes -4.04288
33
root 5.26124 17.4558 -10.0063 4.40507 -5.58778 6.24325
lowerback 17.2022 -1.44172 2.53376
upperback 2.41769 -1.20657 2.94105
thorax -7.03577 -0.615871 1.98648
lowerneck -23.2195 2.2771 -0.347438
upperneck 15.8505 5.06716 -8.57502
head 9.04297 1.37002 -2.17426
rclavicle 2.3059e-014 2.38542e-014
rhumerus -55.4796 2.00645 -71.5719
rradius 73.3792
rwrist -3.31179
rhand -33.7627 2.72389
rfingers 7.12502
rthumb -6.95052 -27.142
lclavicle 2.3059e-014 2.38542e-014
lhumerus -43.2146 -15.9219 97.119
lradius 101.43
lwrist 4.88227
lhand -18.7976 -13.071
lfingers 7.12502
lthumb 7.50052 16.776
rfemur -49.3198 -7.76946 19.3097
rtibia 40.3311
rfoot 0.711402 -2.41425
rtoes -27.7701
lfemur -10.466 5.47766 -29.2457
ltibia 62.8965
lfoot 12.5322 -23.6601
ltoes -6.29533
34
root 5.27539 17.4331 -9.44555 3.67551 -5.23541 6.53231
lowerback 17.8352 -1.54956 2.4745
upperback 2.65535 -1.34048 2.9101
thorax -7.12174 -0.67851 2.03239
lowerneck -22.9994 2.14315 -0.398882
upperneck 16.0672 4.89855 -8.50921
head 9.06854 1.29324 -2.17012
rclavicle 2.70347e-014 -5.40694e-014
rhumerus -54.3189 1.98383 -71.9089
rradius 73.0973
rwrist -3.15344
rhand -33.6637 2.73093
rfingers 7.12502
rthumb -6.85495 -27.1381
lclavicle 2.70347e-014 -5.40694e-014
lhumerus -43.2594 -16.1011 96.8588
lradius 100.859
lwrist 4.02231
lhand -18.8654 -13.4963
lfingers 7.12502
lthumb 7.43508 16.3531
rfemur -48.3338 -8.14692 19.515
rtibia 40.13
rfoot 2.92902 -2.34751
rtoes -27.9561
lfemur -11.5382 5.25015 -28.6596
ltibia 66.4317
lfoot 10.7049 -22.3682
ltoes -10.2731
35
root 5.29166 17.3959 -8.87931 2.89599 -5.09194 6.78442
lowerback 18.4399 -1.5581 2.43833
upperback 2.91827 -1.34449 2.85803
thorax -7.16594 -0.679347 2.01092
lowerneck -22.7957 1.97661 -0.481701
upperneck 16.3112 4.69799 -8.44449
head 9.1046 1.19795 -2.16608
rclavicle -5.56597e-015 1.59028e-015
rhumerus -53.1231 1.93184 -72.3017
rradius 72.8403
rwrist -3.07507
rhand -33.5365 2.73531
rfingers 7.12502
rthumb -6.7321 -27.1377
lclavicle -5.56597e-015 1.59028e-015
lhumerus -43.2838 -16.1756 96.5825
lradius 100.164
lwrist 3.2463
lhand -18.9433 -13.7151
lfingers 7.12502
lthumb 7.35989 16.1369
rfemur -47.2337 -8.10838 19.5008
rtibia 40.6133
rfoot 4.79389 -1.28792
rtoes -26.9864
lfemur -12.8726 5.38103 -28.0172
ltibia 70.0514
lfoot 9.11665 -20.0167
ltoes -9.30107
36
root 5.3038 17.343 -8.32275 2.10105 -4.80149 6.97922
lowerback 19.1376 -1.57538 2.42441
upperback 3.1556 -1.34582 2.86196
thorax -7.28508 -0.678554 2.04051
lowerneck -22.575 1.76904 -0.65534
upperneck 16.5483 4.47356 -8.40228
head 9.13386 1.08357 -2.1583
rclavicle 5.56597e-015 -1.74931e-014
rhumerus -51.8255 1.8769 -72.6856
rradius 72.5219
rwrist -3.08821
rhand -33.2999 2.71934
rfingers 7.12502
rthumb -6.50377 -27.1608
lclavicle 5.56597e-015 -1.74931e-014
lhumerus -43.2709 -16.1044 96.3374
lradius 99.4221
lwrist 2.65325
lhand -19.0786 -13.8201
lfingers 7.12502
lthumb 7.22929 16.0364
rfemur -46.0735 -7.84513 19.3149
rtibia 41.7395
rfoot 6.54538 0.594636
rtoes -22.3101
lfemur -14.4942 5.51311 -27.2282
ltibia 73.6707
lfoot 6.60172 -17.7244
ltoes -9.3935
37
root 5.31382 17.2805 -7.7704 1.32717 -4.53651 7.06265
lowerback 19.8654 -1.5543 2.47355
upperback 3.36909 -1.27926 2.8939
thorax -7.4456 -0.646253 2.04893
lowerneck -22.3374 1.52101 -0.949928
upperneck 16.81 4.19842 -8.20438
head 9.15981 0.954675 -2.08403
rclavicle 1.51076e-014 1.74931e-014
rhumerus -50.5204 1.81431 -73.1131
rradius 72.2118
rwrist -3.2046
rhand -33.285 2.63531
rfingers 7.12502
rthumb -6.48933 -27.2453
lclavicle 1.51076e-014 1.74931e-014
lhumerus -43.2476 -15.9529 96.0629
lradius 98.588
lwrist 2.06076
lhand -19.3732 -13.7655
lfingers 7.12502
lthumb 6.94493 16.1006
rfemur -44.9363 -7.75315 19.4681
rtibia 43.5585
rfoot 7.53262 4.33102
rtoes -8.8375
lfemur -16.3557 5.73887 -26.2378
ltibia 77.0696
lfoot 3.90548 -15.4322
ltoes -10.0269
38
root 5.31777 17.2079 -7.2254 0.56161 -4.41311 7.00872
lowerback 20.6439 -1.44523 2.55272
upperback 3.57496 -1.08515 2.96123
thorax -7.64063 -0.553271 2.04566
lowerneck -22.0498 1.24475 -1.18162
upperneck 17.047 3.86761 -8.05066
head 9.16973 0.800852 -2.04262
rclavicle 1.03368e-014 -3.97569e-014
rhumerus -49.1762 1.76207 -73.5655
rradius 71.9111
rwrist -3.27875
rhand -33.5123 2.42438
rfingers 7.12502
rthumb -6.70874 -27.4493
lclavicle 1.03368e-014 -3.97569e-014
lhumerus -43.2009 -15.7574 95.7412
lradius 97.7028
lwrist 1.41201
lhand -19.8171 -13.4788
lfingers 7.12502
lthumb 6.5164 16.401
rfemur -43.4842 -7.25058 19.5644
rtibia 45.9077
rfoot 6.11142 7.03198
rtoes 6.82282
lfemur -18.4044 6.22044 -24.9773
ltibia 80.2235
lfoot 0.995384 -13.216
ltoes -10.9902
39
root 5.32028 17.1009 -6.68824 -0.195671 -4.35496 6.86096
lowerback 21.4855 -1.29292 2.65898
upperback 3.76662 -0.821666 3.05423
thorax -7.88273 -0.427946 2.03497
lowerneck -21.635 0.947371 -1.39751
upperneck 17.1941 3.48475 -7.88463
head 9.12488 0.631173 -2.00475
rclavicle -7.15625e-015 0
rhumerus -47.8378 1.73516 -74.0202
rradius 71.6486
rwrist -3.21656
rhand -33.7924 2.19228
rfingers 7.12502
rthumb -6.97917 -27.6727
lclavicle -7.15625e-015 0
lhumerus -43.1506 -15.4666 95.3732
lradius 96.8201
lwrist 0.862133
lhand -19.956 -13.0298
lfingers 7.12502
lthumb 6.3823 16.854
rfemur -41.6267 -6.34152 19.5735
rtibia 48.5688
rfoot -0.564088 3.60276
rtoes -1.23097
lfemur -20.6742 6.80505 -23.5168
ltibia 83.0661
lfoot -1.014 -10.9383
ltoes -7.63573
40
root 5.32328 16.9805 -6.16178 -0.909403 -4.38644 6.45825
lowerback 22.4422 -1.13513 2.97556
upperback 3.91376 -0.486679 3.20778
thorax -8.23344 -0.274328 1.94963
lowerneck -21.189 0.642028 -1.60432
upperneck 17.3658 3.07457 -7.66539
head 9.08204 0.454727 -1.95293
rclavicle -2.78299e-014 -3.02153e-014
rhumerus -46.4986 1.77187 -74.4849
rradius 71.4046
rwrist -2.97325
rhand -34.1378 2.04168
rfingers 7.12502
rthumb -7.31256 -27.812
lclavicle -2.78299e-014 -3.02153e-014
lhumerus -43.0506 -15.1074 94.9436
lradius 95.9068
lwrist 0.453288
lhand -20.0663 -12.3196
lfingers 7.12502
lthumb 6.27581 17.5675
rfemur -39.8415 -4.94016 19.6722
rtibia 51.1728
rfoot -5.39742 0.941567
rtoes -1.09762
lfemur -23.1766 7.49535 -21.7404
ltibia 85.5594
lfoot -3.11682 -8.703
ltoes -5.83155
